<?xml version="1.0" encoding="utf-8"?>
<!-- Generator: Adobe Illustrator 17.0.1, SVG Export Plug-In . SVG Version: 6.00 Build 0)  -->
<!DOCTYPE svg PUBLIC "-//W3C//DTD SVG 1.1//EN" "http://www.w3.org/Graphics/SVG/1.1/DTD/svg11.dtd">
<svg version="1.1" id="Layer_1" xmlns="http://www.w3.org/2000/svg" xmlns:xlink="http://www.w3.org/1999/xlink" x="0px" y="0px"
	 width="200px" height="248px" viewBox="0 188 200 248" enable-background="new 0 188 200 248" xml:space="preserve">
<g display="none">
	<circle display="inline" cx="403.024" cy="278.534" r="175.162"/>
</g>
<g>
	<g>
		<path fill="#222222" d="M191.173,294.885c-13.957-30.968-42.357-52.568-75.972-57.777l-0.72-0.112l4.428,10.328l0.221,0.035
			c13.924,2.161,26.081,7.215,36.447,15.041c-1.4,0.538-2.838,1.307-4.158,2.508c-0.213,0.194-0.363,0.437-0.559,0.641
			c-2.336-2.415-5.526-3.755-9.461-4.069l0.011-0.115c-0.185-0.017-0.821-0.055-1.695-0.022c-0.022,0-0.038-0.003-0.057-0.003v0.008
			c-2.216,0.09-6.061,0.685-9.226,3.558c-2.974,2.699-4.486,6.57-4.486,11.512h8.071c0-2.546,0.608-4.396,1.798-5.506
			c1.25-1.157,2.994-1.433,4.011-1.493c2.456,0.027,4.26,0.625,5.335,1.793c1.722,1.85,1.776,5.185,1.776,5.206h8.071
			c0-2.546,0.606-4.396,1.795-5.506c1.252-1.157,2.994-1.433,4.011-1.493c1.356,0.016,2.491,0.218,3.435,0.581
			c7.531,7.67,13.878,17.153,18.972,28.457c1.689,3.752,3.094,7.58,4.254,11.458h-57.717v-13.037l0.033-4.502l-0.429-0.003v-0.024
			c0,0-2.778-0.008-7.305-0.022l-0.341-0.003l0,0c-6.448-0.022-16.31-0.055-26.995-0.09c-8.099-4.369-16.198-8.732-24.296-13.103
			v-24.618h0.065v-24.077H39.625v8.001h-18.35v24.078h25.977v-8.001h14.691v24.749c-7.635,4.257-15.27,8.508-22.907,12.762
			c-7.49-0.027-14.56-0.049-19.401-0.063c0.993-1.621,2.047-3.22,3.162-4.797l0.131-0.185l-4.14-9.466l-0.412,0.584
			c-20.432,28.859-24.111,66.785-9.602,98.977C24.911,412.874,60.763,436,100.116,436c14.173,0,27.953-2.963,40.947-8.819
			C191.355,404.513,213.832,345.167,191.173,294.885z M39.182,254.446h-9.831v-7.935h9.831V254.446z M47.698,238.514H62.42v7.93
			H47.698V238.514z M66.305,286.08c14.451,7.79,28.905,15.586,43.359,23.377c-28.253-0.103-56.508-0.205-84.764-0.306
			C38.702,301.462,52.504,293.772,66.305,286.08z M25.323,350.474h3.635v42.786c-2.811-3.473-5.376-7.171-7.67-11.076v-31.71H25.323
			z M59.41,387.658c5.886,0.033,6.634,3.403,6.68,4.816v28.201c-4.633-1.861-9.089-4.093-13.34-6.666v-21.551
			c0-0.011,0.093-1.842,1.384-3.132C55.221,388.223,56.998,387.672,59.41,387.658z M98.389,350.474v76.755
			c-2.579-0.049-5.133-0.215-7.67-0.48v-76.275H98.389z M129.474,422.38c-2.532,0.868-5.089,1.613-7.67,2.251V350.33h7.67V422.38z
			 M121.4,342.266h-7.668v83.986c-2.407,0.366-4.833,0.625-7.272,0.791V342.4h-7.665v-5.916H121.4L121.4,342.266L121.4,342.266z
			 M90.315,342.403h-7.67v83.151c-2.865-0.557-5.703-1.203-8.481-2.027v-31.03c0.006-0.521-0.079-5.201-3.735-8.868
			c-2.636-2.66-6.323-3.998-10.926-4.033v-0.014c-0.03,0-0.055,0.006-0.085,0.006c-0.03,0-0.055-0.006-0.085-0.006v0.014
			c-4.606,0.035-8.29,1.372-10.926,4.033c-3.654,3.667-3.735,8.347-3.735,8.844v16.088c-2.668-2.03-5.206-4.232-7.643-6.546v-59.612
			h-8.071v-5.918h61.357L90.315,342.403L90.315,342.403z M20.883,342.403h-7.67v22.217c-3.326-9.488-5.122-18.915-5.397-28.136
			h13.065v5.918H20.883z M185.33,368.312c-8.647,22.809-25.614,40.887-47.785,50.89v-76.935h-7.67v-5.111h61.417
			C191.145,347.661,189.167,358.18,185.33,368.312z M7.931,328.41c0.259-3.801,0.786-7.553,1.577-11.245
			c37.394,0.139,74.785,0.273,112.176,0.409v0.074h0.131v10.759H7.931V328.41z M191.05,329.087h-61.158v-0.676h-0.003V317.99H189.5
			C190.239,321.662,190.771,325.368,191.05,329.087z M121.708,300.397l-0.011,6.382c-3.965-2.139-7.935-4.281-11.905-6.42
			C114.412,300.376,118.481,300.389,121.708,300.397z M24.633,300.053c-4.058,2.262-8.115,4.522-12.173,6.784
			c0.835-2.306,1.817-4.568,2.873-6.811C17.325,300.032,20.611,300.043,24.633,300.053z"/>
		<path fill="#222222" d="M169.45,349.399h-24.22v37.14h24.22V349.399z M161.375,378.471h-8.077v-20.997h8.077V378.471z"/>
		<rect x="48.891" y="343.614" fill="#222222" width="22.545" height="8.08"/>
		<rect x="44.241" y="354.925" fill="#222222" width="31.154" height="8.069"/>
		<rect x="48.891" y="366.221" fill="#222222" width="22.545" height="8.074"/>
	</g>
</g>
</svg>
