<?xml version="1.0" encoding="utf-8"?>
<!-- Generator: Adobe Illustrator 17.0.1, SVG Export Plug-In . SVG Version: 6.00 Build 0)  -->
<!DOCTYPE svg PUBLIC "-//W3C//DTD SVG 1.1//EN" "http://www.w3.org/Graphics/SVG/1.1/DTD/svg11.dtd">
<svg version="1.1" id="Layer_1" xmlns="http://www.w3.org/2000/svg" xmlns:xlink="http://www.w3.org/1999/xlink" x="0px" y="0px"
	 width="200px" height="248px" viewBox="0.04 -0.435 200 248" enable-background="new 0.04 -0.435 200 248" xml:space="preserve">
<g display="none">
	<circle display="inline" cx="403.024" cy="278.534" r="175.162"/>
</g>
<g>
	<g>
		<path fill="#222222" d="M153.857,63.283l-0.608-0.404l-0.128,11.242l0.194,0.117c7.594,4.859,14.046,10.51,19.379,16.916
			c-0.126,0.205-0.253,0.406-0.374,0.614c-0.169-0.169-0.286-0.371-0.464-0.529c-3.17-2.878-7.014-3.47-9.228-3.56v-0.006
			c-0.019,0-0.035,0.003-0.055,0.003c-0.87-0.033-1.508,0.006-1.697,0.019l0.011,0.115c-4.092,0.327-7.409,1.738-9.78,4.34
			c-4.032,4.457-3.62,9.946-3.552,10.604h8.116c0-0.038-0.265-3.355,1.454-5.216c1.088-1.173,2.916-1.77,5.412-1.784
			c1.029,0.071,2.717,0.363,3.931,1.492c1.195,1.105,1.795,2.965,1.795,5.51h8.067c0-0.289-0.057-0.543-0.065-0.826l0.03-0.003
			c0-0.03-0.153-2.529,1.149-4.37c9.051,13.558,13.727,30.021,13.877,49.29c0.115,14.461-3.17,28.163-9.084,40.373h-16.171v8.069
			h11.744c-6.596,10.715-15.337,19.976-25.634,27.17v-50.537v-4.04v-58.048h-11.484V83.953h-12.365V68.349h-10.437V53.85h-0.215
			l0.276-0.262c-0.117-0.12-11.801-12.775-11.801-46.102v-1.52l-5.431-6.168l-5.508,6.149v1.541
			c0,32.967-11.383,46.033-11.479,46.143l0.238,0.221h-0.513v14.499H73.384v15.604H59.442v25.882H47.259v58.044v4.04v49.997
			c-20.947-14.938-35.389-38.469-38.043-65.38h26.6v-8.064H8.762c0-0.057-0.006-0.117-0.006-0.177
			c-0.019-2.117,0.027-4.212,0.123-6.28h17.166v-8.072H9.613c3.385-26.965,17.085-48.734,39.533-62.169l0.197-0.112l0.03-10.328
			l-0.617,0.368C18.433,79.851-0.24,113.061,0.044,148.368c0.436,54.697,45.289,99.197,99.981,99.197h0.813
			c55.134-0.436,99.64-45.654,99.2-100.793C199.768,112.817,182.505,81.601,153.857,63.283z M144.113,227.503
			c-8.132,4.501-17.033,7.777-26.441,9.624v-65.205h26.441V227.503z M144.113,163.845h-26.441v-45.932h26.441V163.845z
			 M100.712,33.41c2.158,9.681,5.23,16.321,7.646,20.443H93.27C95.619,49.739,98.609,43.099,100.712,33.41z M91.527,61.922h18.296
			v6.427H91.527V61.922z M81.464,76.416h38.791v7.537H81.464V76.416z M67.513,92.027h65.101v17.808h-23.018v58.044v4.04v66.432
			c-2.902,0.303-5.846,0.483-8.822,0.508h-0.739c-3.751,0-7.441-0.256-11.078-0.701h0.884v-66.236v-4.04v-58.047H67.51V92.027
			H67.513z M55.327,117.912h26.441v45.932H55.327V117.912z M55.327,171.922h26.441v65.088c-9.417-1.929-18.307-5.344-26.441-9.949
			V171.922z"/>
		<rect x="71.818" y="95.884" fill="#222222" width="8.072" height="10.093"/>
		<rect x="87.956" y="95.884" fill="#222222" width="8.072" height="10.093"/>
		<rect x="104.1" y="95.884" fill="#222222" width="8.072" height="10.093"/>
		<rect x="120.238" y="95.884" fill="#222222" width="8.083" height="10.093"/>
		<rect x="96.178" y="110.956" fill="#222222" width="8.072" height="10.085"/>
		<rect x="96.178" y="127.094" fill="#222222" width="8.072" height="10.085"/>
		<rect x="96.178" y="143.241" fill="#222222" width="8.072" height="10.085"/>
		<rect x="96.178" y="159.379" fill="#222222" width="8.072" height="10.09"/>
		<rect x="96.178" y="175.528" fill="#222222" width="8.072" height="10.08"/>
		<rect x="96.178" y="191.67" fill="#222222" width="8.072" height="10.085"/>
		<rect x="96.178" y="207.802" fill="#222222" width="8.072" height="10.101"/>
		<rect x="96.178" y="223.946" fill="#222222" width="8.072" height="10.093"/>
		<rect x="59.049" y="127.094" fill="#222222" width="8.075" height="10.085"/>
		<rect x="70.347" y="127.094" fill="#222222" width="8.072" height="10.085"/>
		<rect x="59.049" y="143.241" fill="#222222" width="8.075" height="10.085"/>
		<rect x="70.347" y="143.241" fill="#222222" width="8.072" height="10.085"/>
		<rect x="121.204" y="127.757" fill="#222222" width="8.075" height="10.088"/>
		<rect x="132.5" y="127.757" fill="#222222" width="8.075" height="10.088"/>
		<rect x="121.204" y="143.901" fill="#222222" width="8.075" height="10.09"/>
		<rect x="132.5" y="143.901" fill="#222222" width="8.075" height="10.09"/>
		<rect x="58.866" y="181.824" fill="#222222" width="8.072" height="10.093"/>
		<rect x="70.162" y="181.824" fill="#222222" width="8.075" height="10.093"/>
		<rect x="58.866" y="197.971" fill="#222222" width="8.072" height="10.09"/>
		<rect x="70.162" y="197.971" fill="#222222" width="8.075" height="10.09"/>
		<rect x="58.866" y="214.109" fill="#222222" width="8.072" height="10.09"/>
		<rect x="70.162" y="214.109" fill="#222222" width="8.075" height="10.09"/>
		<rect x="121.204" y="181.824" fill="#222222" width="8.075" height="10.093"/>
		<rect x="132.5" y="181.824" fill="#222222" width="8.075" height="10.093"/>
		<rect x="121.204" y="197.971" fill="#222222" width="8.075" height="10.09"/>
		<rect x="132.5" y="197.971" fill="#222222" width="8.075" height="10.09"/>
		<rect x="121.204" y="214.109" fill="#222222" width="8.075" height="10.09"/>
		<rect x="132.5" y="214.109" fill="#222222" width="8.075" height="10.09"/>
	</g>
</g>
</svg>
